<?xml version="1.0" encoding="utf-8"?>
<!-- Generator: Adobe Illustrator 21.0.0, SVG Export Plug-In . SVG Version: 6.00 Build 0)  -->
<svg version="1.1" id="Capa_1" xmlns="http://www.w3.org/2000/svg" xmlns:xlink="http://www.w3.org/1999/xlink" x="0px" y="0px"
	 viewBox="0 0 300 280" style="enable-background:new 0 0 300 280;" xml:space="preserve">
<style type="text/css">
	.st0{fill:#F2F2F2;}
	.st1{fill:#2F2E41;}
	.st2{fill:#FFFFFF;}
	.st3{fill:#E6E6E6;}
	.st4{fill:#4B249C;}
	.st5{fill:#FFB6B6;}
	.st6{fill:#CACACA;}
	.st7{fill:#3F3D56;}
</style>
<path class="st0" d="M263.2,145.9c0,32.5-11.8,63.8-32.9,87.3c-1.3,1.4-2.6,2.8-3.9,4.2c-2,2.1-4.2,4.1-6.3,6
	c-20.4,18-45.9,28-72.4,28.6c-0.9,0-1.8,0-2.7,0c-21.1,0-47.7-12-71.7-28.7c-2-1.4-4-2.8-5.9-4.2c-0.9-0.7-1.8-1.3-2.7-2
	c-9.3-7-18.1-14.7-26.4-23c-5.4-5.4-10.5-11.2-15.2-17.4c-18.5-24.4-22.6-46.3,3.8-50.8c3.1-0.5,6.2-1.1,9.1-1.7
	c4.3-0.9,8.3-1.8,12.2-2.8c5.2-1.4,10.2-2.8,14.8-4.4c1.6-0.5,3.1-1.1,4.5-1.6c21.9-8.2,36.5-18.9,46.5-30.5c1.7-2,3.2-4,4.7-6
	c2.2-3.1,4.2-6.3,5.9-9.6c2.4-4.7,4.5-9.5,6.1-14.6l0.1-0.3c7.9-24.4,5.5-47,14.3-54.6c37.4-32.4,83.9,13.7,105.8,68.1
	c1.1,2.7,2.1,5.5,3.1,8.3c0.4,1.2,0.9,2.5,1.3,3.7c1.1,3.2,2,6.5,2.9,9.7c0.3,1.2,0.6,2.5,1,3.7c0.3,1.3,0.6,2.7,0.9,4
	C262,127.1,263.2,136.8,263.2,145.9z"/>
<path class="st1" d="M147.6,272c-0.9,0-1.8,0-2.7,0c-21.1,0-47.7-12-71.7-28.7c-2-1.4-4-2.8-5.9-4.2l1.7-11.1l52-7.4l26.1,21.3
	L147.6,272z"/>
<path class="st2" d="M150.1,72.9h-7.4c-0.5,0-0.9,0.4-0.9,0.9v7.9c0,0.5,0.4,0.9,0.9,0.9c0,0,0,0,0,0h7.4c0.5,0,0.9-0.4,0.9-0.9
	v-7.9C151,73.3,150.6,72.9,150.1,72.9z"/>
<path class="st3" d="M150.1,86.4h-7.4c-0.5,0-0.9,0.4-0.9,0.9v7.9c0,0.5,0.4,0.9,0.9,0.9c0,0,0,0,0,0h7.4c0.5,0,0.9-0.4,0.9-0.9
	v-7.9C151,86.8,150.6,86.4,150.1,86.4z"/>
<path class="st3" d="M150.1,99.9h-7.4c-0.5,0-0.9,0.4-0.9,0.9v7.9c0,0.5,0.4,0.9,0.9,0.9c0,0,0,0,0,0h7.4c0.5,0,0.9-0.4,0.9-0.9
	v-7.9C151,100.3,150.6,99.9,150.1,99.9z"/>
<path class="st3" d="M151,114.1c-0.1-0.4-0.4-0.8-0.9-0.8h-7.4c-0.5,0-0.9,0.4-0.9,0.9v7.9c0,0.5,0.4,0.9,0.9,0.9c0,0,0,0,0,0h7.4
	c0.5,0,0.9-0.4,0.9-0.9v-7.9C151,114.2,151,114.2,151,114.1z"/>
<path class="st3" d="M150.4,126.9c-0.1,0-0.2-0.1-0.3-0.1h-7.4c-0.5,0-0.9,0.4-0.9,0.9c0,0,0,0,0,0v7.9c0,0.5,0.4,0.9,0.9,0.9
	c0,0,0,0,0,0h7.4c0.5,0,0.9-0.4,0.9-0.9v-7.9C151,127.4,150.8,127,150.4,126.9z"/>
<path class="st3" d="M165.7,72.9h-7.4c-0.5,0-0.9,0.4-0.9,0.9v7.9c0,0.5,0.4,0.9,0.9,0.9c0,0,0,0,0,0h7.4c0.5,0,0.9-0.4,0.9-0.9
	v-7.9C166.5,73.3,166.1,72.9,165.7,72.9z"/>
<path class="st4" d="M165.7,86.4h-7.4c-0.5,0-0.9,0.4-0.9,0.9v7.9c0,0.5,0.4,0.9,0.9,0.9c0,0,0,0,0,0h7.4c0.5,0,0.9-0.4,0.9-0.9
	v-7.9C166.5,86.8,166.1,86.4,165.7,86.4z"/>
<path class="st4" d="M165.7,99.9h-7.4c-0.5,0-0.9,0.4-0.9,0.9v7.9c0,0.5,0.4,0.9,0.9,0.9c0,0,0,0,0,0h7.4c0.5,0,0.9-0.4,0.9-0.9
	v-7.9C166.5,100.3,166.1,99.9,165.7,99.9z"/>
<path class="st4" d="M165.7,113.3h-7.4c-0.4,0-0.7,0.3-0.8,0.6c0,0.1,0,0.2,0,0.3v7.9c0,0.5,0.4,0.9,0.9,0.9c0,0,0,0,0,0h7.4
	c0.5,0,0.9-0.4,0.9-0.9v-7.9C166.5,113.8,166.1,113.3,165.7,113.3z"/>
<path class="st3" d="M165.7,126.8h-7.4c-0.5,0-0.9,0.4-0.9,0.9c0,0,0,0,0,0v7.9c0,0.5,0.4,0.9,0.9,0.9c0,0,0,0,0,0h7.4
	c0.5,0,0.9-0.4,0.9-0.9v-7.9C166.5,127.2,166.1,126.8,165.7,126.8z"/>
<path class="st4" d="M181.2,72.9h-7.4c-0.5,0-0.9,0.4-0.9,0.9v7.9c0,0.5,0.4,0.9,0.9,0.9c0,0,0,0,0,0h7.4c0.5,0,0.9-0.4,0.9-0.9
	v-7.9C182.1,73.3,181.7,72.9,181.2,72.9z"/>
<path class="st4" d="M181.2,86.4h-7.4c-0.5,0-0.9,0.4-0.9,0.9v7.9c0,0.5,0.4,0.9,0.9,0.9c0,0,0,0,0,0h7.4c0.5,0,0.9-0.4,0.9-0.9
	v-7.9C182.1,86.8,181.7,86.4,181.2,86.4z"/>
<path class="st3" d="M181.2,99.9h-7.4c-0.5,0-0.9,0.4-0.9,0.9v7.9c0,0.5,0.4,0.9,0.9,0.9c0,0,0,0,0,0h7.4c0.5,0,0.9-0.4,0.9-0.9
	v-7.9C182.1,100.3,181.7,99.9,181.2,99.9z"/>
<path class="st4" d="M181.2,113.3h-7.4c-0.5,0-0.9,0.4-0.9,0.9v7.9c0,0.5,0.4,0.9,0.9,0.9c0,0,0,0,0,0h7.4c0.5,0,0.9-0.4,0.9-0.9
	v-7.9C182.1,113.8,181.7,113.3,181.2,113.3z"/>
<path class="st4" d="M181.2,126.8h-7.4c-0.5,0-0.9,0.4-0.9,0.9c0,0,0,0,0,0v7.9c0,0.5,0.4,0.9,0.9,0.9c0,0,0,0,0,0h7.4
	c0.5,0,0.9-0.4,0.9-0.9v-7.9C182.1,127.2,181.7,126.8,181.2,126.8z"/>
<path class="st4" d="M196.8,72.9h-7.4c-0.5,0-0.9,0.4-0.9,0.9v7.9c0,0.5,0.4,0.9,0.9,0.9c0,0,0,0,0,0h7.4c0.5,0,0.9-0.4,0.9-0.9
	v-7.9C197.6,73.3,197.3,72.9,196.8,72.9z"/>
<path class="st2" d="M196.8,86.4h-7.4c-0.5,0-0.9,0.4-0.9,0.9v7.9c0,0.5,0.4,0.9,0.9,0.9c0,0,0,0,0,0h7.4c0.5,0,0.9-0.4,0.9-0.9
	v-7.9C197.6,86.8,197.3,86.4,196.8,86.4z"/>
<path class="st2" d="M196.8,99.9h-7.4c-0.5,0-0.9,0.4-0.9,0.9v7.9c0,0.5,0.4,0.9,0.9,0.9c0,0,0,0,0,0h7.4c0.5,0,0.9-0.4,0.9-0.9
	v-7.9C197.6,100.3,197.3,99.9,196.8,99.9z"/>
<path class="st3" d="M196.8,113.3h-7.4c-0.5,0-0.9,0.4-0.9,0.9v7.9c0,0.5,0.4,0.9,0.9,0.9c0,0,0,0,0,0h7.4c0.5,0,0.9-0.4,0.9-0.9
	v-7.9C197.6,113.8,197.3,113.3,196.8,113.3z"/>
<path class="st4" d="M196.8,126.8h-7.4c-0.5,0-0.9,0.4-0.9,0.9c0,0,0,0,0,0v7.9c0,0.5,0.4,0.9,0.9,0.9c0,0,0,0,0,0h7.4
	c0.5,0,0.9-0.4,0.9-0.9v-7.9C197.6,127.2,197.3,126.8,196.8,126.8z"/>
<path class="st2" d="M212.3,72.9h-7.4c-0.5,0-0.9,0.4-0.9,0.9v7.9c0,0.5,0.4,0.9,0.9,0.9h7.4c0.5,0,0.9-0.4,0.9-0.9v-7.9
	C213.2,73.3,212.8,72.9,212.3,72.9z"/>
<path class="st2" d="M212.3,86.4h-7.4c-0.5,0-0.9,0.4-0.9,0.9v7.9c0,0.5,0.4,0.9,0.9,0.9h7.4c0.5,0,0.9-0.4,0.9-0.9v-7.9
	C213.2,86.8,212.8,86.4,212.3,86.4z"/>
<path class="st2" d="M212.3,99.9h-7.4c-0.5,0-0.9,0.4-0.9,0.9v7.9c0,0.5,0.4,0.9,0.9,0.9c0,0,0,0,0,0h7.4c0.5,0,0.9-0.4,0.9-0.9
	v-7.9C213.2,100.3,212.8,99.9,212.3,99.9z"/>
<path class="st4" d="M212.3,113.3h-7.4c-0.5,0-0.9,0.4-0.9,0.9v7.9c0,0.5,0.4,0.9,0.9,0.9c0,0,0,0,0,0h7.4c0.5,0,0.9-0.4,0.9-0.9
	v-7.9C213.2,113.8,212.8,113.3,212.3,113.3z"/>
<path class="st3" d="M212.3,126.8h-7.4c-0.5,0-0.9,0.4-0.9,0.9c0,0,0,0,0,0v7.9c0,0.5,0.4,0.9,0.9,0.9c0,0,0,0,0,0h7.4
	c0.5,0,0.9-0.4,0.9-0.9v-7.9C213.2,127.2,212.8,126.8,212.3,126.8z"/>
<path class="st2" d="M227.9,72.9h-7.4c-0.5,0-0.9,0.4-0.9,0.9v7.9c0,0.5,0.4,0.9,0.9,0.9h7.4c0.5,0,0.9-0.4,0.9-0.9v-7.9
	C228.8,73.3,228.4,72.9,227.9,72.9z"/>
<path class="st2" d="M227.9,86.4h-7.4c-0.5,0-0.9,0.4-0.9,0.9v7.9c0,0.5,0.4,0.9,0.9,0.9h7.4c0.5,0,0.9-0.4,0.9-0.9v-7.9
	C228.8,86.8,228.4,86.4,227.9,86.4z"/>
<path class="st4" d="M227.9,99.9h-7.4c-0.5,0-0.9,0.4-0.9,0.9v7.9c0,0.5,0.4,0.9,0.9,0.9c0,0,0,0,0,0h7.4c0.5,0,0.9-0.4,0.9-0.9
	v-7.9C228.8,100.3,228.4,99.9,227.9,99.9z"/>
<path class="st3" d="M227.9,113.3h-7.4c-0.5,0-0.9,0.4-0.9,0.9v7.9c0,0.5,0.4,0.9,0.9,0.9c0,0,0,0,0,0h7.4c0.5,0,0.9-0.4,0.9-0.9
	v-7.9C228.8,113.8,228.4,113.3,227.9,113.3z"/>
<path class="st2" d="M227.9,126.8h-7.4c-0.5,0-0.9,0.4-0.9,0.9c0,0,0,0,0,0v7.9c0,0.5,0.4,0.9,0.9,0.9c0,0,0,0,0,0h7.4
	c0.5,0,0.9-0.4,0.9-0.9v-7.9C228.8,127.2,228.4,126.8,227.9,126.8z"/>
<path class="st4" d="M243.5,72.9H236c-0.5,0-0.9,0.4-0.9,0.9v7.9c0,0.5,0.4,0.9,0.9,0.9h7.4c0.5,0,0.9-0.4,0.9-0.9v-7.9
	C244.3,73.3,243.9,72.9,243.5,72.9z"/>
<path class="st4" d="M243.5,86.4H236c-0.5,0-0.9,0.4-0.9,0.9v7.9c0,0.5,0.4,0.9,0.9,0.9h7.4c0.5,0,0.9-0.4,0.9-0.9v-7.9
	C244.3,86.8,243.9,86.4,243.5,86.4z"/>
<path class="st3" d="M243.5,99.9H236c-0.5,0-0.9,0.4-0.9,0.9v7.9c0,0.5,0.4,0.9,0.9,0.9c0,0,0,0,0,0h7.4c0.5,0,0.9-0.4,0.9-0.9v-7.9
	C244.3,100.3,243.9,99.9,243.5,99.9z"/>
<path class="st2" d="M243.5,113.3H236c-0.5,0-0.9,0.4-0.9,0.9v7.9c0,0.5,0.4,0.9,0.9,0.9c0,0,0,0,0,0h7.4c0.5,0,0.9-0.4,0.9-0.9
	v-7.9C244.3,113.8,243.9,113.3,243.5,113.3z"/>
<path class="st4" d="M243.5,126.8H236c-0.5,0-0.9,0.4-0.9,0.9c0,0,0,0,0,0v7.9c0,0.5,0.4,0.9,0.9,0.9c0,0,0,0,0,0h7.4
	c0.5,0,0.9-0.4,0.9-0.9v-7.9C244.3,127.2,243.9,126.8,243.5,126.8z"/>
<path class="st4" d="M259,72.9h-7.4c-0.5,0-0.9,0.4-0.9,0.9v7.9c0,0.5,0.4,0.9,0.9,0.9h7.4c0.5,0,0.9-0.4,0.9-0.9v-7.9
	C259.9,73.3,259.5,72.9,259,72.9z"/>
<path class="st4" d="M259,86.4h-7.4c-0.5,0-0.9,0.4-0.9,0.9v7.9c0,0.5,0.4,0.9,0.9,0.9h7.4c0.5,0,0.9-0.4,0.9-0.9v-7.9
	C259.9,86.8,259.5,86.4,259,86.4z"/>
<path class="st3" d="M259,99.9h-7.4c-0.5,0-0.9,0.4-0.9,0.9v7.9c0,0.5,0.4,0.9,0.9,0.9c0,0,0,0,0,0h7.4c0.5,0,0.9-0.4,0.9-0.9v-7.9
	C259.9,100.3,259.5,99.9,259,99.9z"/>
<path class="st4" d="M259,113.3h-7.4c-0.5,0-0.9,0.4-0.9,0.9v7.9c0,0.5,0.4,0.9,0.9,0.9c0,0,0,0,0,0h7.4c0.5,0,0.9-0.4,0.9-0.9v-7.9
	C259.9,113.8,259.5,113.3,259,113.3z"/>
<path class="st4" d="M259,126.8h-7.4c-0.5,0-0.9,0.4-0.9,0.9c0,0,0,0,0,0v7.9c0,0.5,0.4,0.9,0.9,0.9c0,0,0,0,0,0h7.4
	c0.5,0,0.9-0.4,0.9-0.9v-7.9C259.9,127.2,259.5,126.8,259,126.8z"/>
<path class="st3" d="M274.6,72.9h-7.4c-0.5,0-0.9,0.4-0.9,0.9v7.9c0,0.5,0.4,0.9,0.9,0.9h7.4c0.5,0,0.9-0.4,0.9-0.9v-7.9
	C275.4,73.3,275.1,72.9,274.6,72.9z"/>
<path class="st4" d="M274.6,86.4h-7.4c-0.5,0-0.9,0.4-0.9,0.9v7.9c0,0.5,0.4,0.9,0.9,0.9h7.4c0.5,0,0.9-0.4,0.9-0.9v-7.9
	C275.4,86.8,275.1,86.4,274.6,86.4z"/>
<path class="st4" d="M274.6,99.9h-7.4c-0.5,0-0.9,0.4-0.9,0.9v7.9c0,0.5,0.4,0.9,0.9,0.9c0,0,0,0,0,0h7.4c0.5,0,0.9-0.4,0.9-0.9
	v-7.9C275.4,100.3,275.1,99.9,274.6,99.9z"/>
<path class="st4" d="M274.6,113.3h-7.4c-0.5,0-0.9,0.4-0.9,0.9v7.9c0,0.5,0.4,0.9,0.9,0.9c0,0,0,0,0,0h7.4c0.5,0,0.9-0.4,0.9-0.9
	v-7.9C275.4,113.8,275.1,113.3,274.6,113.3z"/>
<path class="st3" d="M274.6,126.8h-7.4c-0.5,0-0.9,0.4-0.9,0.9c0,0,0,0,0,0v7.9c0,0.5,0.4,0.9,0.9,0.9c0,0,0,0,0,0h7.4
	c0.5,0,0.9-0.4,0.9-0.9v-7.9C275.4,127.2,275.1,126.8,274.6,126.8z"/>
<path class="st3" d="M290.1,72.9h-7.4c-0.5,0-0.9,0.4-0.9,0.9v7.9c0,0.5,0.4,0.9,0.9,0.9h7.4c0.5,0,0.9-0.4,0.9-0.9v-7.9
	C291,73.3,290.6,72.9,290.1,72.9z"/>
<path class="st3" d="M290.1,86.4h-7.4c-0.5,0-0.9,0.4-0.9,0.9v7.9c0,0.5,0.4,0.9,0.9,0.9h7.4c0.5,0,0.9-0.4,0.9-0.9v-7.9
	C291,86.8,290.6,86.4,290.1,86.4z"/>
<path class="st4" d="M290.1,99.9h-7.4c-0.5,0-0.9,0.4-0.9,0.9v7.9c0,0.5,0.4,0.9,0.9,0.9c0,0,0,0,0,0h7.4c0.5,0,0.9-0.4,0.9-0.9
	v-7.9C291,100.3,290.6,99.9,290.1,99.9z"/>
<path class="st3" d="M290.1,113.3h-7.4c-0.5,0-0.9,0.4-0.9,0.9v7.9c0,0.5,0.4,0.9,0.9,0.9c0,0,0,0,0,0h7.4c0.5,0,0.9-0.4,0.9-0.9
	v-7.9C291,113.8,290.6,113.3,290.1,113.3z"/>
<path class="st3" d="M290.1,126.8h-7.4c-0.5,0-0.9,0.4-0.9,0.9c0,0,0,0,0,0v7.9c0,0.5,0.4,0.9,0.9,0.9c0,0,0,0,0,0h7.4
	c0.5,0,0.9-0.4,0.9-0.9v-7.9C291,127.2,290.6,126.8,290.1,126.8z"/>
<polygon class="st1" points="119.8,243.3 119.6,243.3 119.8,243.3 "/>
<ellipse id="b6132315-04e2-4cdb-a713-107c9cd58b0b" class="st5" cx="102.1" cy="71.7" rx="22.7" ry="24.3"/>
<path id="f4304bdd-ba2d-4fff-b404-410205410c5d" class="st1" d="M122,54c0,0,5.9-12.1-7.1-13.2c0,0-11.2-10.8-22.5-2
	c0,0-6.2,0-9.6,7.5c0,0-4.9-2-5.9,3.3c0,0-3.6,11,0,20.9c3.6,9.9,4.8,11,4.8,11S75.7,60.7,90,59.6c14.3-1.1,30.2-10.6,31.4,1.5
	c1.2,12.1,3,15.1,3,15.1S135.7,58.9,122,54z"/>
<path class="st6" d="M160.9,131.5l-0.1,0.4l-0.8,4.6l-5.7,32l-0.3,1.9l-0.7,4l-1,5.4l-2.1,12.1l-0.6,3.5l-0.2,1.3l-0.1,0.5l-0.6,3.6
	l-0.2,1.1l-1.6,12.3l-1.4,10.7l4.5,4.8l-2.7,2.9l-1.8,10.8l0,0H73.2c-2.9-2-5.8-4.1-8.7-6.3l0.6-4.8c0,0,2-8.5,1.2-9.5
	c-0.9-1-2.7-2.8-2.7-2.8l2.4-5.9l0.3-0.8L65.7,201l0-0.3l-0.2-4l0-0.5l0-0.8l-0.7-15.5l0-0.3l-0.2-4.7l-0.2-4.5l-0.1-1.9l-0.9-18.9
	l-0.6-12.8l-0.5-11.2l2-0.7l21.7-7.9l9-12.5l18.7,0.1l9.2,0.1l15.3,15.2l3.5,1.8l0,0l2.5,1.3l6.3,3.2l6.7,3.4L160.9,131.5
	L160.9,131.5z"/>
<path class="st5" d="M97.5,206.9c-5.2,2.1-11-0.6-13-6.1c-0.2-0.6-0.4-1.2-0.5-1.8l-35.5-5.4l12.3-14.9l31.8,7.4
	c5.6-0.8,10.6,3.4,11.3,9.4C104.6,200.4,101.9,205.2,97.5,206.9L97.5,206.9z"/>
<path class="st6" d="M81.7,179.9c-0.7-0.9-1.6-1.5-2.6-1.7l-14.5-3.2l-1.5-0.3c-1.8-0.4-3.3-1.6-4.2-3.2c-0.5-0.9-0.7-1.8-0.8-2.8
	c-0.1-0.9,0-1.8,0.3-2.7l5-16.2l3.3-10.5c0.4-1.3,0.6-2.6,0.7-3.9c0.2-3.7-0.9-7.3-3-10.3c-3.8-5.3-10.5-7.2-16.3-4.8
	c-0.1,0-0.2,0.1-0.3,0.1c-4.1,1.8-7.3,5.5-8.4,10.1l-3.6,13.8l-7.3,28.4c-2.8,10.9,3.2,22.2,13.4,25.2c0.9,0.3,1.9,0.5,2.9,0.6
	l21,2.6l9.7,1.2c2.3,0.3,4.5-1.4,4.9-3.8c0-0.1,0-0.1,0-0.2l0.2-1.5l2-12.9l0-0.1C82.8,182.3,82.5,180.9,81.7,179.9z"/>
<path class="st5" d="M120.1,207.3c5.4,1.3,10.8-2.3,12.1-8c0.1-0.6,0.2-1.2,0.2-1.9l34.4-10.6l-14.2-12.9L122.2,186
	c-5.6,0.1-10.1,5-10,11C112.3,202,115.6,206.3,120.1,207.3L120.1,207.3z"/>
<path class="st6" d="M183.9,163l-16.4-40.2c-1.3-3.3-3.7-6-6.7-7.6c-0.9-0.5-1.9-0.9-2.9-1.1c-0.2,0-0.3-0.1-0.5-0.1
	c-2.1-0.5-4.4-0.5-6.5,0.1c-3.9,1.1-7.2,3.9-9.1,7.7c0,0,0,0,0,0c-2.1,4.3-2.1,9.4-0.1,13.8l0.2,0.4l11.6,24.8
	c1.5,3.3,0.3,7.3-2.8,9c-0.2,0.1-0.4,0.2-0.7,0.3l-0.8,0.3l-14.6,5.6c-2.3,0.9-3.5,3.5-2.8,6l0,0.1l4.1,14c0,0.1,0,0.1,0.1,0.2
	c0,0.1,0.1,0.2,0.1,0.4c0.9,2.2,3.1,3.3,5.3,2.7l7.9-2.2l1.6-0.5l20.3-5.7c10.3-2.9,16.4-14.1,13.7-25.1
	C184.6,164.9,184.3,163.9,183.9,163L183.9,163z"/>
<path class="st7" d="M22.9,196.7c4.7,6.1,9.8,11.9,15.2,17.4h150.4c3,0,5.5,2.6,5.5,5.8l0.2,40.7c9.3-4.5,17.9-10.3,25.8-17.2
	c2.2-1.9,4.3-3.9,6.3-6c1.3-1.4,2.6-2.7,3.9-4.2c9.6-10.6,17.3-23,22.9-36.5H22.9z"/>
<path class="st2" d="M230.3,233.2c-1.3,1.4-2.6,2.8-3.9,4.2h-32v-4.2H230.3z"/>
<path class="st7" d="M160.6,99.9c-0.3-0.6-0.9-1-1.6-1H49.9c-1,0-1.8,0.9-1.8,2v69.7h112.8v-69.7
	C160.8,100.5,160.8,100.2,160.6,99.9z"/>
<path class="st7" d="M48,168.6v8.6c0,1.5,1.1,2.7,2.5,2.7c0,0,0,0,0,0h41.6v17h-0.6c-0.2,0-0.3,0.2-0.3,0.4c0,0,0,0,0,0v1.2
	c0,0.2,0.1,0.4,0.3,0.4c0,0,0,0,0,0h25.8c0.2,0,0.3-0.2,0.3-0.4c0,0,0,0,0,0v-1.2c0-0.2-0.1-0.4-0.3-0.4c0,0,0,0,0,0h-0.6v-17h41.6
	c1.4,0,2.5-1.2,2.5-2.7c0,0,0,0,0,0v-8.6H48z"/>
<ellipse class="st4" cx="103.1" cy="132.8" rx="10.4" ry="11.1"/>
<path class="st4" d="M129.7,70.4H128c0-13.4-12.4-22.2-25-22.2c-1.8,0-3.6,0.2-5.4,0.6c-2,0.4-4.1,0.9-6.2,1.6
	c-8.1,2.7-15.6,7.8-15.6,20c0,2.4,0.3,4.8,0.8,7.1L75,77.9c-0.6-2.5-0.9-5-0.9-7.5c0-10.7,4.1-18.1,11.2-22.5
	c3.7-2.3,8.3-3.8,13.5-4.5c2.2-0.3,4.4-0.4,6.6-0.2C119.9,44.3,129.7,56.1,129.7,70.4z"/>
<path class="st4" d="M132.4,71.4l-0.7-5.2c-0.2-1.3-0.8-2.5-1.7-3.4c-1.2-1.2-2.8-1.7-4.4-1.4l-1,0.2c-0.6,0.1-1.1,0.4-1.4,0.9
	c-0.4,0.5-0.5,1.1-0.4,1.7l1.5,11.9c0.1,1,0.8,1.8,1.8,2c0.1,0,0.3,0,0.4,0c0.1,0,0.2,0,0.3,0l1.2-0.2c1.4-0.2,2.7-1,3.6-2.3
	c0.1-0.1,0.2-0.3,0.3-0.4C132.4,74.1,132.6,72.7,132.4,71.4z"/>
<path class="st2" d="M124,61.8c-0.3,0.2-0.6,0.4-0.8,0.7c-0.4,0.5-0.5,1.1-0.4,1.7l1.5,11.9c0.1,1,0.8,1.8,1.8,2L124,61.8z"/>
<path class="st7" d="M132.4,71.4l-0.7-5.2c-0.2-1.3-0.8-2.5-1.7-3.4l1.5,11.8c0,0.2,0.1,0.4,0.1,0.6
	C132.4,74.1,132.6,72.7,132.4,71.4z"/>
<path class="st7" d="M126.6,70.2c0.5-0.1,1,1,1.1,2.3s-0.1,2.5-0.5,2.6c-0.5,0.1-1-1-1.1-2.3S126.2,70.3,126.6,70.2z"/>
<path class="st7" d="M125.6,63.8c0.5-0.1,1,1,1.1,2.3s-0.1,2.5-0.5,2.6c-0.5,0.1-1-1-1.1-2.3S125.2,63.9,125.6,63.8z"/>
<path class="st7" d="M132,66.3c0.5-0.1,1,1,1.1,2.3c0.2,1.4-0.1,2.5-0.5,2.6s-1-1-1.1-2.3C131.3,67.5,131.5,66.4,132,66.3z"/>
<path class="st7" d="M103,48.2c-1.8,0-3.6,0.2-5.4,0.6c-2,0.4-4.1,0.9-6.2,1.6c-3.2-0.2-5.6-1.1-6-2.4c3.7-2.3,8.3-3.8,13.5-4.5
	c2.2-0.3,4.4-0.4,6.6-0.2c0.5,0.3,0.8,0.8,0.9,1.4C106.5,45.8,105.2,47.1,103,48.2z"/>
<path class="st4" d="M81.8,82.7l-2.6-11.4c-0.2-0.8-0.8-1.5-1.6-1.6c-0.1,0-0.2,0-0.3,0c-0.2,0-0.3,0-0.5,0.1l-1,0.3
	c-2.7,0.7-4.3,3.5-3.7,6.4l1.1,5.1c0.3,1.2,0.9,2.3,1.8,3.1c0.1,0.1,0.3,0.2,0.5,0.3c1.1,0.8,2.5,1,3.8,0.7l1-0.3
	c0.3-0.1,0.5-0.2,0.7-0.4C81.7,84.5,82,83.6,81.8,82.7z"/>
<path class="st7" d="M75.3,75.8c0.4-0.1,1.1,0.9,1.4,2.2s0.2,2.5-0.3,2.6c-0.4,0.1-1.1-0.9-1.4-2.2S74.9,75.9,75.3,75.8z"/>
<path class="st7" d="M72,76.9c0.4-0.1,1.1,0.9,1.4,2.2c0.3,1.3,0.2,2.5-0.3,2.6c-0.4,0.1-1.1-0.9-1.4-2.2C71.4,78.1,71.5,77,72,76.9
	z"/>
<path class="st2" d="M81.9,82.7l-2.6-11.4c-0.2-0.9-0.9-1.6-1.8-1.7l3.5,15.5C81.8,84.6,82.1,83.6,81.9,82.7z"/>
<path class="st7" d="M72.7,74.2c-0.1-0.3-0.2-0.6-0.4-0.9c-0.4,1-0.4,2.1-0.2,3.1l1.1,5.1c0.3,1.2,0.9,2.3,1.8,3.1L72.7,74.2z"/>
</svg>
