<?xml version="1.0" encoding="utf-8"?>
<!-- Generator: Adobe Illustrator 21.0.0, SVG Export Plug-In . SVG Version: 6.00 Build 0)  -->
<svg version="1.1" id="Capa_1" xmlns="http://www.w3.org/2000/svg" xmlns:xlink="http://www.w3.org/1999/xlink" x="0px" y="0px"
	 viewBox="0 0 3000 1500" style="enable-background:new 0 0 3000 1500;" xml:space="preserve">
<path d="M2092.3,410.5c0.9,14.2,0.9,28.4,0.9,42.6c0,433-302.3,931.9-854.9,931.9c-170.2,0-328.4-53.7-461.4-147
	c24.2,3,47.4,4.1,72.6,4.1c140.5,0,269.8-51.7,373-139.9c-132.1-3-242.8-97.4-280.9-227.2c18.6,3,37.2,5.1,56.7,5.1
	c27,0,54-4.1,79.1-11.2c-137.7-30.4-240.9-162.3-240.9-321.5v-4.1c40,24.3,86.5,39.5,135.8,41.6c-80.9-58.8-133.9-159.2-133.9-272.8
	c0-60.8,14.9-116.6,40.9-165.3c147.9,198.8,370.2,328.6,619.5,342.8c-4.7-24.3-7.4-49.7-7.4-75c0-180.5,134-327.5,300.5-327.5
	c86.5,0,164.6,39.5,219.5,103.4c67.9-14.2,133-41.6,190.7-79.1c-22.3,76.1-69.8,139.9-132.1,180.5c60.5-7.1,119.1-25.4,173-50.7
	C2202.1,306,2150.9,363.8,2092.3,410.5L2092.3,410.5z"/>
</svg>
