<?xml version="1.0" encoding="utf-8"?>
<!-- Generator: Adobe Illustrator 21.0.0, SVG Export Plug-In . SVG Version: 6.00 Build 0)  -->
<svg version="1.1" id="Capa_1" xmlns="http://www.w3.org/2000/svg" xmlns:xlink="http://www.w3.org/1999/xlink" x="0px" y="0px"
	 viewBox="0 0 728 410" style="enable-background:new 0 0 728 410;" xml:space="preserve">
<style type="text/css">
	.st0{fill:#FFFFFF;}
</style>
<image style="overflow:visible;" width="728" height="410" xlink:href="../header-bg.jpg" >
</image>
<rect x="332.6" y="166.6" transform="matrix(0.8797 -0.4755 0.4755 0.8797 -39.0775 201.933)" class="st0" width="93.9" height="23.3"/>
<rect x="331.2" y="205.7" transform="matrix(0.8878 0.4602 -0.4602 0.8878 142.5225 -149.4063)" class="st0" width="92.9" height="23.7"/>
<path class="st0" d="M340.5,208h-6c-3.6,0-6.5-2.9-6.5-6.5v-5c0-3.6,2.9-6.5,6.5-6.5h6c3.6,0,6.5,2.9,6.5,6.5v5
	C347,205.1,344.1,208,340.5,208z"/>
<rect x="507.8" y="206.3" transform="matrix(-0.8805 0.474 -0.474 -0.8805 1146.582 146.8496)" class="st0" width="93.9" height="23.3"/>
<rect x="510.3" y="166.7" transform="matrix(-0.887 -0.4618 0.4618 -0.887 968.2272 594.0185)" class="st0" width="92.9" height="23.7"/>
<path class="st0" d="M599.5,206h-5c-3.6,0-6.5-2.9-6.5-6.5v-5c0-3.6,2.9-6.5,6.5-6.5h5c3.6,0,6.5,2.9,6.5,6.5v5
	C606,203.1,603.1,206,599.5,206z"/>
<path class="st0" d="M500,137.5l-11.1-4.1c-1.9-0.7-4.1,0.3-4.8,2.2l-50.8,136.4c-0.7,1.9,0.3,4.1,2.2,4.8l11.1,4.1
	c1.9,0.7,4.1-0.3,4.8-2.2l50.8-136.4C502.9,140.4,501.9,138.2,500,137.5z"/>
</svg>
